<mxfile host="Electron" agent="Mozilla/5.0 (Windows NT 10.0; Win64; x64) AppleWebKit/537.36 (KHTML, like Gecko) draw.io/25.0.2 Chrome/128.0.6613.186 Electron/32.2.5 Safari/537.36" version="25.0.2">
  <diagram name="Page-1" id="3Ul0SsXq_op1wQz5ja0d">
    <mxGraphModel dx="1900" dy="629" grid="1" gridSize="10" guides="1" tooltips="1" connect="1" arrows="1" fold="1" page="1" pageScale="1" pageWidth="850" pageHeight="1100" math="0" shadow="0">
      <root>
        <mxCell id="0" />
        <mxCell id="1" parent="0" />
        <mxCell id="-ba_oT2AiXJ2_tuTVjSR-2" value="Meal(&lt;u&gt;Meal_id &lt;/u&gt;, name , price , res_id)" style="text;html=1;align=center;verticalAlign=middle;whiteSpace=wrap;rounded=0;" vertex="1" parent="1">
          <mxGeometry x="60" y="180" width="230" height="30" as="geometry" />
        </mxCell>
        <mxCell id="-ba_oT2AiXJ2_tuTVjSR-3" value="Restaurant(name , &lt;u&gt;res_id&lt;/u&gt;,rating , owner)" style="text;html=1;align=center;verticalAlign=middle;whiteSpace=wrap;rounded=0;" vertex="1" parent="1">
          <mxGeometry x="-140" y="110" width="630" height="30" as="geometry" />
        </mxCell>
        <mxCell id="-ba_oT2AiXJ2_tuTVjSR-4" value="User(&lt;u&gt;user_name&lt;/u&gt;&amp;nbsp;, password, name , address , kind)" style="text;html=1;align=center;verticalAlign=middle;whiteSpace=wrap;rounded=0;" vertex="1" parent="1">
          <mxGeometry x="10" y="40" width="380" height="30" as="geometry" />
        </mxCell>
        <mxCell id="-ba_oT2AiXJ2_tuTVjSR-6" value="Order(&lt;u&gt;order_num&lt;/u&gt;&amp;nbsp;, date , status&amp;nbsp; , price , order_owner , order_deliver )" style="text;html=1;align=center;verticalAlign=middle;whiteSpace=wrap;rounded=0;" vertex="1" parent="1">
          <mxGeometry x="60" y="250" width="480" height="30" as="geometry" />
        </mxCell>
        <mxCell id="-ba_oT2AiXJ2_tuTVjSR-7" value="order_meals(&lt;u&gt;meal_id , order_num&lt;/u&gt;)" style="text;html=1;align=center;verticalAlign=middle;whiteSpace=wrap;rounded=0;" vertex="1" parent="1">
          <mxGeometry x="70" y="310" width="210" height="30" as="geometry" />
        </mxCell>
        <mxCell id="-ba_oT2AiXJ2_tuTVjSR-9" value="" style="endArrow=classic;html=1;rounded=0;exitX=0.631;exitY=0.147;exitDx=0;exitDy=0;exitPerimeter=0;entryX=0.25;entryY=1;entryDx=0;entryDy=0;" edge="1" parent="1" source="-ba_oT2AiXJ2_tuTVjSR-3" target="-ba_oT2AiXJ2_tuTVjSR-4">
          <mxGeometry width="50" height="50" relative="1" as="geometry">
            <mxPoint x="500" y="350" as="sourcePoint" />
            <mxPoint x="380" y="90" as="targetPoint" />
          </mxGeometry>
        </mxCell>
        <mxCell id="-ba_oT2AiXJ2_tuTVjSR-10" value="" style="endArrow=classic;html=1;rounded=0;entryX=0.5;entryY=1;entryDx=0;entryDy=0;exitX=0.75;exitY=0;exitDx=0;exitDy=0;" edge="1" parent="1" source="-ba_oT2AiXJ2_tuTVjSR-2" target="-ba_oT2AiXJ2_tuTVjSR-3">
          <mxGeometry width="50" height="50" relative="1" as="geometry">
            <mxPoint x="250" y="190" as="sourcePoint" />
            <mxPoint x="300" y="140" as="targetPoint" />
          </mxGeometry>
        </mxCell>
        <mxCell id="-ba_oT2AiXJ2_tuTVjSR-11" value="" style="endArrow=classic;html=1;rounded=0;entryX=0.25;entryY=1;entryDx=0;entryDy=0;" edge="1" parent="1" target="-ba_oT2AiXJ2_tuTVjSR-4">
          <mxGeometry width="50" height="50" relative="1" as="geometry">
            <mxPoint x="430" y="260" as="sourcePoint" />
            <mxPoint x="360" y="80" as="targetPoint" />
            <Array as="points">
              <mxPoint x="430" y="90" />
            </Array>
          </mxGeometry>
        </mxCell>
        <mxCell id="-ba_oT2AiXJ2_tuTVjSR-12" value="" style="endArrow=classic;html=1;rounded=0;exitX=0.613;exitY=0.04;exitDx=0;exitDy=0;exitPerimeter=0;entryX=0.25;entryY=1;entryDx=0;entryDy=0;" edge="1" parent="1" source="-ba_oT2AiXJ2_tuTVjSR-6" target="-ba_oT2AiXJ2_tuTVjSR-4">
          <mxGeometry width="50" height="50" relative="1" as="geometry">
            <mxPoint x="500" y="350" as="sourcePoint" />
            <mxPoint x="354" y="90" as="targetPoint" />
            <Array as="points">
              <mxPoint x="354" y="110" />
            </Array>
          </mxGeometry>
        </mxCell>
        <mxCell id="-ba_oT2AiXJ2_tuTVjSR-13" value="" style="endArrow=classic;html=1;rounded=0;exitX=0.75;exitY=0;exitDx=0;exitDy=0;entryX=0.175;entryY=0.947;entryDx=0;entryDy=0;entryPerimeter=0;" edge="1" parent="1" source="-ba_oT2AiXJ2_tuTVjSR-7" target="-ba_oT2AiXJ2_tuTVjSR-6">
          <mxGeometry width="50" height="50" relative="1" as="geometry">
            <mxPoint x="500" y="350" as="sourcePoint" />
            <mxPoint x="550" y="300" as="targetPoint" />
          </mxGeometry>
        </mxCell>
        <mxCell id="-ba_oT2AiXJ2_tuTVjSR-14" value="" style="endArrow=classic;html=1;rounded=0;exitX=0.5;exitY=0;exitDx=0;exitDy=0;entryX=0.223;entryY=0.96;entryDx=0;entryDy=0;entryPerimeter=0;" edge="1" parent="1" source="-ba_oT2AiXJ2_tuTVjSR-7" target="-ba_oT2AiXJ2_tuTVjSR-2">
          <mxGeometry width="50" height="50" relative="1" as="geometry">
            <mxPoint x="500" y="350" as="sourcePoint" />
            <mxPoint x="30" y="270" as="targetPoint" />
            <Array as="points">
              <mxPoint x="70" y="280" />
            </Array>
          </mxGeometry>
        </mxCell>
      </root>
    </mxGraphModel>
  </diagram>
</mxfile>
